<?xml version="1.0" encoding="utf-8"?>
<!-- Generator: Adobe Illustrator 26.0.2, SVG Export Plug-In . SVG Version: 6.00 Build 0)  -->
<svg version="1.1" id="Layer_1" xmlns="http://www.w3.org/2000/svg" xmlns:xlink="http://www.w3.org/1999/xlink" x="0px" y="0px"
	 viewBox="0 0 251 109" style="enable-background:new 0 0 251 109;" xml:space="preserve">
<style type="text/css">
	.st0{fill:#FFFFFF;}
</style>
<path class="st0" d="M29.08,86.64c-6.99-2.13-15.04-6.6-14.86-13.91c0.15-5.93,5.82-10.1,11.22-12.56
	c12.12-5.51,25.94-7.22,39.04-4.84c-1.93-8.68-2.4-18.13,1.51-26.11s13.26-13.77,21.8-11.28c9.56,2.79,13.91,13.89,15.07,23.78
	c3.12-7.45,12.85-11.28,20.22-7.97c7.36,3.31,10.94,13.14,7.44,20.42c7.62-4.65,17.9-4.55,25.43,0.25
	c-4.29,2.89-2.56,10.19,1.81,12.94s9.93,2.42,15.09,2.22c15.87-0.62,31.82,0.99,47.24,4.75c8.17,1.99,17.62,6.19,18.69,14.53
	c-34.76,1.83-69.57,2.63-104.37,2.38c-19.72-0.14-30.55,11.2-50.39,5.89C66.06,92.33,47.13,92.15,29.08,86.64z"/>
</svg>
