<?xml version="1.0" encoding="utf-8"?>
<!-- Generator: Adobe Illustrator 26.0.2, SVG Export Plug-In . SVG Version: 6.00 Build 0)  -->
<svg version="1.1" id="Layer_1" xmlns="http://www.w3.org/2000/svg" xmlns:xlink="http://www.w3.org/1999/xlink" x="0px" y="0px"
	 viewBox="0 0 218 145" style="enable-background:new 0 0 218 145;" xml:space="preserve">
<style type="text/css">
	.st0{fill:#FFFFFF;}
</style>
<path class="st0" d="M141.38,126.8c-34.42,9.78-71.61,9.58-105.92-0.57c-9.38-2.78-19.87-7.73-21.87-17.31
	c-2.48-11.87,10.29-21.8,22.3-23.49c12.01-1.69,24.37,1.42,36.29-0.82c-8.99-15.36-11.37-34.44-6.42-51.54
	c1.79-6.19,5.12-12.71,11.21-14.81c7.35-2.54,15.12,2.48,20.54,8.06c10.03,10.31,17.04,23.53,19.94,37.61
	c-5.41-9.65,3.58-23.45,14.64-23.1c11.06,0.34,19.25,13.56,15.36,23.91c1.79-9.87,14.72-15.76,23.34-10.62
	c8.62,5.14,9.59,19.32,1.75,25.58c4.94-3.97,11.6-5.72,17.85-4.68c0.4,4.9-0.37,9.89-2.23,14.44c9.47,2.53,21.26,8.42,19.56,18.07
	c-1.3,7.37-9.83,10.67-17.09,12.46c-27.84,6.87-56.26,11.38-84.86,13.48"/>
</svg>
